{
	"asset":{
		"generator":"Khronos glTF Blender I/O v4.1.63",
		"version":"2.0"
	},
	"scene":0,
	"scenes":[
		{
			"name":"Scene",
			"nodes":[
				0,
				1,
				2
			]
		}
	],
	"nodes":[
		{
			"mesh":0,
			"name":"mendako_fake"
		},
		{
			"mesh":1,
			"name":"top_men",
			"rotation":[
				-0.05505100265145302,
				0,
				0,
				0.9984835386276245
			],
			"scale":[
				1,
				0.9499814510345459,
				0.7681651711463928
			],
			"translation":[
				0,
				-0.09799398481845856,
				0.269962877035141
			]
		},
		{
			"mesh":2,
			"name":"zip_men"
		}
	],
	"materials":[
		{
			"doubleSided":true,
			"name":"Material",
			"pbrMetallicRoughness":{
				"baseColorTexture":{
					"index":0
				},
				"metallicFactor":0,
				"roughnessFactor":0.5
			}
		},
		{
			"doubleSided":true,
			"name":"\u30de\u30c6\u30ea\u30a2\u30eb",
			"pbrMetallicRoughness":{
				"baseColorFactor":[
					0.24845895171165466,
					0.24845895171165466,
					0.24845895171165466,
					1
				],
				"metallicFactor":0.8235294222831726,
				"roughnessFactor":0.46176469326019287
			}
		}
	],
	"meshes":[
		{
			"name":"\u7403",
			"primitives":[
				{
					"attributes":{
						"POSITION":0,
						"NORMAL":1,
						"TEXCOORD_0":2
					},
					"indices":3,
					"material":0
				}
			]
		},
		{
			"name":"\u7acb\u65b9\u4f53.006",
			"primitives":[
				{
					"attributes":{
						"POSITION":4,
						"NORMAL":5,
						"TEXCOORD_0":6
					},
					"indices":7,
					"material":1
				}
			]
		},
		{
			"name":"\u7acb\u65b9\u4f53.008",
			"primitives":[
				{
					"attributes":{
						"POSITION":8,
						"NORMAL":9,
						"TEXCOORD_0":10
					},
					"indices":11,
					"material":1
				}
			]
		}
	],
	"textures":[
		{
			"sampler":0,
			"source":0
		}
	],
	"images":[
		{
			"mimeType":"image/png",
			"name":"men_body_paint",
			"uri":"men_body_paint.png"
		}
	],
	"accessors":[
		{
			"bufferView":0,
			"componentType":5126,
			"count":430,
			"max":[
				0.9069088101387024,
				1.2094398736953735,
				0.7859605550765991
			],
			"min":[
				-0.9069088101387024,
				-0.002077639102935791,
				-0.7779796123504639
			],
			"type":"VEC3"
		},
		{
			"bufferView":1,
			"componentType":5126,
			"count":430,
			"type":"VEC3"
		},
		{
			"bufferView":2,
			"componentType":5126,
			"count":430,
			"type":"VEC2"
		},
		{
			"bufferView":3,
			"componentType":5123,
			"count":2124,
			"type":"SCALAR"
		},
		{
			"bufferView":4,
			"componentType":5126,
			"count":200,
			"max":[
				0.06983669102191925,
				1.0219917297363281,
				0.6034108996391296
			],
			"min":[
				-0.07177715003490448,
				0.7628031969070435,
				0.4391244649887085
			],
			"type":"VEC3"
		},
		{
			"bufferView":5,
			"componentType":5126,
			"count":200,
			"type":"VEC3"
		},
		{
			"bufferView":6,
			"componentType":5126,
			"count":200,
			"type":"VEC2"
		},
		{
			"bufferView":7,
			"componentType":5123,
			"count":348,
			"type":"SCALAR"
		},
		{
			"bufferView":8,
			"componentType":5126,
			"count":1056,
			"max":[
				0.03365447372198105,
				0.8862820863723755,
				0.6431704759597778
			],
			"min":[
				-0.027476195245981216,
				0.2518850564956665,
				0.5007316470146179
			],
			"type":"VEC3"
		},
		{
			"bufferView":9,
			"componentType":5126,
			"count":1056,
			"type":"VEC3"
		},
		{
			"bufferView":10,
			"componentType":5126,
			"count":1056,
			"type":"VEC2"
		},
		{
			"bufferView":11,
			"componentType":5123,
			"count":1584,
			"type":"SCALAR"
		}
	],
	"bufferViews":[
		{
			"buffer":0,
			"byteLength":5160,
			"byteOffset":0,
			"target":34962
		},
		{
			"buffer":0,
			"byteLength":5160,
			"byteOffset":5160,
			"target":34962
		},
		{
			"buffer":0,
			"byteLength":3440,
			"byteOffset":10320,
			"target":34962
		},
		{
			"buffer":0,
			"byteLength":4248,
			"byteOffset":13760,
			"target":34963
		},
		{
			"buffer":0,
			"byteLength":2400,
			"byteOffset":18008,
			"target":34962
		},
		{
			"buffer":0,
			"byteLength":2400,
			"byteOffset":20408,
			"target":34962
		},
		{
			"buffer":0,
			"byteLength":1600,
			"byteOffset":22808,
			"target":34962
		},
		{
			"buffer":0,
			"byteLength":696,
			"byteOffset":24408,
			"target":34963
		},
		{
			"buffer":0,
			"byteLength":12672,
			"byteOffset":25104,
			"target":34962
		},
		{
			"buffer":0,
			"byteLength":12672,
			"byteOffset":37776,
			"target":34962
		},
		{
			"buffer":0,
			"byteLength":8448,
			"byteOffset":50448,
			"target":34962
		},
		{
			"buffer":0,
			"byteLength":3168,
			"byteOffset":58896,
			"target":34963
		}
	],
	"samplers":[
		{
			"magFilter":9729,
			"minFilter":9987
		}
	],
	"buffers":[
		{
			"byteLength":62064,
			"uri":"mendako.bin"
		}
	]
}
